<svg width="272" height="163" viewBox="0 0 272 163" fill="none" xmlns="http://www.w3.org/2000/svg">
<path d="M159.5 84.5625V111H150.5V77.1875H158.969L159.5 84.5625ZM169.688 76.9687L169.531 85.3125C169.094 85.25 168.562 85.1979 167.938 85.1562C167.333 85.0937 166.781 85.0625 166.281 85.0625C165.01 85.0625 163.906 85.2292 162.969 85.5625C162.052 85.875 161.281 86.3437 160.656 86.9687C160.052 87.5937 159.594 88.3542 159.281 89.25C158.99 90.1458 158.823 91.1667 158.781 92.3125L156.969 91.75C156.969 89.5625 157.188 87.5521 157.625 85.7187C158.062 83.8646 158.698 82.25 159.531 80.875C160.385 79.5 161.427 78.4375 162.656 77.6875C163.885 76.9375 165.292 76.5625 166.875 76.5625C167.375 76.5625 167.885 76.6042 168.406 76.6875C168.927 76.75 169.354 76.8437 169.688 76.9687ZM191.125 103.375V88.3125C191.125 87.2292 190.948 86.3021 190.594 85.5312C190.24 84.7396 189.688 84.125 188.938 83.6875C188.208 83.25 187.26 83.0312 186.094 83.0312C185.094 83.0312 184.229 83.2083 183.5 83.5625C182.771 83.8958 182.208 84.3854 181.812 85.0312C181.417 85.6562 181.219 86.3958 181.219 87.25H172.219C172.219 85.8125 172.552 84.4479 173.219 83.1562C173.885 81.8646 174.854 80.7292 176.125 79.75C177.396 78.75 178.906 77.9687 180.656 77.4062C182.427 76.8437 184.406 76.5625 186.594 76.5625C189.219 76.5625 191.552 77 193.594 77.875C195.635 78.75 197.24 80.0625 198.406 81.8125C199.594 83.5625 200.188 85.75 200.188 88.375V102.844C200.188 104.698 200.302 106.219 200.531 107.406C200.76 108.573 201.094 109.594 201.531 110.469V111H192.438C192 110.083 191.667 108.937 191.438 107.562C191.229 106.167 191.125 104.771 191.125 103.375ZM192.312 90.4062L192.375 95.5H187.344C186.156 95.5 185.125 95.6354 184.25 95.9062C183.375 96.1771 182.656 96.5625 182.094 97.0625C181.531 97.5417 181.115 98.1042 180.844 98.75C180.594 99.3958 180.469 100.104 180.469 100.875C180.469 101.646 180.646 102.344 181 102.969C181.354 103.573 181.865 104.052 182.531 104.406C183.198 104.74 183.979 104.906 184.875 104.906C186.229 104.906 187.406 104.635 188.406 104.094C189.406 103.552 190.177 102.885 190.719 102.094C191.281 101.302 191.573 100.552 191.594 99.8437L193.969 103.656C193.635 104.51 193.177 105.396 192.594 106.312C192.031 107.229 191.312 108.094 190.438 108.906C189.562 109.698 188.51 110.354 187.281 110.875C186.052 111.375 184.594 111.625 182.906 111.625C180.76 111.625 178.812 111.198 177.062 110.344C175.333 109.469 173.958 108.271 172.938 106.75C171.938 105.208 171.438 103.458 171.438 101.5C171.438 99.7292 171.771 98.1562 172.438 96.7812C173.104 95.4062 174.083 94.25 175.375 93.3125C176.688 92.3542 178.323 91.6354 180.281 91.1562C182.24 90.6562 184.51 90.4062 187.094 90.4062H192.312ZM221.094 104.594C222.198 104.594 223.177 104.385 224.031 103.969C224.885 103.531 225.552 102.927 226.031 102.156C226.531 101.365 226.792 100.437 226.812 99.375H235.281C235.26 101.75 234.625 103.865 233.375 105.719C232.125 107.552 230.448 109 228.344 110.062C226.24 111.104 223.885 111.625 221.281 111.625C218.656 111.625 216.365 111.187 214.406 110.312C212.469 109.437 210.854 108.229 209.562 106.687C208.271 105.125 207.302 103.312 206.656 101.25C206.01 99.1667 205.688 96.9375 205.688 94.5625V93.6562C205.688 91.2604 206.01 89.0312 206.656 86.9687C207.302 84.8854 208.271 83.0729 209.562 81.5312C210.854 79.9687 212.469 78.75 214.406 77.875C216.344 77 218.615 76.5625 221.219 76.5625C223.99 76.5625 226.417 77.0937 228.5 78.1562C230.604 79.2187 232.25 80.7396 233.438 82.7187C234.646 84.6771 235.26 87 235.281 89.6875H226.812C226.792 88.5625 226.552 87.5417 226.094 86.625C225.656 85.7083 225.01 84.9792 224.156 84.4375C223.323 83.875 222.292 83.5937 221.062 83.5937C219.75 83.5937 218.677 83.875 217.844 84.4375C217.01 84.9792 216.365 85.7292 215.906 86.6875C215.448 87.625 215.125 88.6979 214.938 89.9062C214.771 91.0937 214.688 92.3437 214.688 93.6562V94.5625C214.688 95.875 214.771 97.1354 214.938 98.3437C215.104 99.5521 215.417 100.625 215.875 101.562C216.354 102.5 217.01 103.24 217.844 103.781C218.677 104.323 219.76 104.594 221.094 104.594ZM249.5 62.9687V111H240.5V62.9687H249.5ZM270.812 77.1875L256.125 93.9375L248.25 101.906L244.969 95.4062L251.219 87.4687L260 77.1875H270.812ZM261.469 111L251.469 95.375L257.688 89.9375L271.844 111H261.469Z" fill="black"/>
<path d="M66.3438 149.559C66.3438 149.051 66.2656 148.595 66.1094 148.191C65.9661 147.775 65.6927 147.397 65.2891 147.059C64.8854 146.707 64.319 146.362 63.5898 146.023C62.8607 145.685 61.9167 145.333 60.7578 144.969C59.4688 144.552 58.2448 144.083 57.0859 143.562C55.9401 143.042 54.9245 142.436 54.0391 141.746C53.1667 141.043 52.4766 140.229 51.9688 139.305C51.474 138.38 51.2266 137.306 51.2266 136.082C51.2266 134.897 51.487 133.823 52.0078 132.859C52.5286 131.883 53.2578 131.049 54.1953 130.359C55.1328 129.656 56.2396 129.116 57.5156 128.738C58.8047 128.361 60.2174 128.172 61.7539 128.172C63.8503 128.172 65.6797 128.549 67.2422 129.305C68.8047 130.06 70.0156 131.095 70.875 132.41C71.7474 133.725 72.1836 135.229 72.1836 136.922H66.3633C66.3633 136.089 66.1875 135.359 65.8359 134.734C65.4974 134.096 64.9766 133.595 64.2734 133.23C63.5833 132.866 62.7109 132.684 61.6562 132.684C60.6406 132.684 59.7943 132.84 59.1172 133.152C58.4401 133.452 57.9323 133.862 57.5938 134.383C57.2552 134.891 57.0859 135.464 57.0859 136.102C57.0859 136.583 57.2031 137.02 57.4375 137.41C57.6849 137.801 58.0495 138.165 58.5312 138.504C59.013 138.842 59.6055 139.161 60.3086 139.461C61.0117 139.76 61.8255 140.053 62.75 140.34C64.2995 140.809 65.6602 141.336 66.832 141.922C68.0169 142.508 69.0065 143.165 69.8008 143.895C70.5951 144.624 71.194 145.451 71.5977 146.375C72.0013 147.299 72.2031 148.348 72.2031 149.52C72.2031 150.757 71.9622 151.863 71.4805 152.84C70.9987 153.816 70.3021 154.643 69.3906 155.32C68.4792 155.997 67.3919 156.512 66.1289 156.863C64.8659 157.215 63.4531 157.391 61.8906 157.391C60.4844 157.391 59.0977 157.208 57.7305 156.844C56.3633 156.466 55.1198 155.9 54 155.145C52.8932 154.389 52.0078 153.426 51.3438 152.254C50.6797 151.082 50.3477 149.695 50.3477 148.094H56.2266C56.2266 148.979 56.3633 149.728 56.6367 150.34C56.9102 150.952 57.2943 151.447 57.7891 151.824C58.2969 152.202 58.8958 152.475 59.5859 152.645C60.2891 152.814 61.0573 152.898 61.8906 152.898C62.9062 152.898 63.7396 152.755 64.3906 152.469C65.0547 152.182 65.543 151.785 65.8555 151.277C66.181 150.77 66.3438 150.197 66.3438 149.559ZM74.9375 146.648V146.238C74.9375 144.689 75.1589 143.263 75.6016 141.961C76.0443 140.646 76.6888 139.507 77.5352 138.543C78.3815 137.579 79.4232 136.831 80.6602 136.297C81.8971 135.75 83.3164 135.477 84.918 135.477C86.5195 135.477 87.9453 135.75 89.1953 136.297C90.4453 136.831 91.4935 137.579 92.3398 138.543C93.1992 139.507 93.8503 140.646 94.293 141.961C94.7357 143.263 94.957 144.689 94.957 146.238V146.648C94.957 148.185 94.7357 149.611 94.293 150.926C93.8503 152.228 93.1992 153.367 92.3398 154.344C91.4935 155.307 90.4518 156.056 89.2148 156.59C87.9779 157.124 86.5586 157.391 84.957 157.391C83.3555 157.391 81.9297 157.124 80.6797 156.59C79.4427 156.056 78.3945 155.307 77.5352 154.344C76.6888 153.367 76.0443 152.228 75.6016 150.926C75.1589 149.611 74.9375 148.185 74.9375 146.648ZM80.5625 146.238V146.648C80.5625 147.534 80.6406 148.361 80.7969 149.129C80.9531 149.897 81.2005 150.574 81.5391 151.16C81.8906 151.733 82.3464 152.182 82.9062 152.508C83.4661 152.833 84.1497 152.996 84.957 152.996C85.7383 152.996 86.4089 152.833 86.9688 152.508C87.5286 152.182 87.9779 151.733 88.3164 151.16C88.6549 150.574 88.9023 149.897 89.0586 149.129C89.2279 148.361 89.3125 147.534 89.3125 146.648V146.238C89.3125 145.379 89.2279 144.572 89.0586 143.816C88.9023 143.048 88.6484 142.371 88.2969 141.785C87.9583 141.186 87.5091 140.717 86.9492 140.379C86.3893 140.04 85.7122 139.871 84.918 139.871C84.1237 139.871 83.4466 140.04 82.8867 140.379C82.3398 140.717 81.8906 141.186 81.5391 141.785C81.2005 142.371 80.9531 143.048 80.7969 143.816C80.6406 144.572 80.5625 145.379 80.5625 146.238ZM104.352 127V157H98.707V127H104.352ZM121.5 151.941V135.867H127.125V157H121.832L121.5 151.941ZM122.125 147.605L123.785 147.566C123.785 148.973 123.622 150.281 123.297 151.492C122.971 152.69 122.483 153.732 121.832 154.617C121.181 155.49 120.361 156.173 119.371 156.668C118.382 157.15 117.216 157.391 115.875 157.391C114.846 157.391 113.896 157.247 113.023 156.961C112.164 156.661 111.422 156.199 110.797 155.574C110.185 154.936 109.703 154.122 109.352 153.133C109.013 152.13 108.844 150.926 108.844 149.52V135.867H114.469V149.559C114.469 150.184 114.54 150.711 114.684 151.141C114.84 151.57 115.055 151.922 115.328 152.195C115.602 152.469 115.921 152.664 116.285 152.781C116.663 152.898 117.079 152.957 117.535 152.957C118.694 152.957 119.605 152.723 120.27 152.254C120.947 151.785 121.422 151.147 121.695 150.34C121.982 149.52 122.125 148.608 122.125 147.605ZM141.773 135.867V139.852H129.469V135.867H141.773ZM132.516 130.652H138.141V150.633C138.141 151.245 138.219 151.714 138.375 152.039C138.544 152.365 138.792 152.592 139.117 152.723C139.443 152.84 139.853 152.898 140.348 152.898C140.699 152.898 141.012 152.885 141.285 152.859C141.572 152.82 141.812 152.781 142.008 152.742L142.027 156.883C141.546 157.039 141.025 157.163 140.465 157.254C139.905 157.345 139.286 157.391 138.609 157.391C137.372 157.391 136.292 157.189 135.367 156.785C134.456 156.368 133.753 155.704 133.258 154.793C132.763 153.882 132.516 152.684 132.516 151.199V130.652ZM150.914 135.867V157H145.27V135.867H150.914ZM144.918 130.359C144.918 129.539 145.204 128.862 145.777 128.328C146.35 127.794 147.118 127.527 148.082 127.527C149.033 127.527 149.794 127.794 150.367 128.328C150.953 128.862 151.246 129.539 151.246 130.359C151.246 131.18 150.953 131.857 150.367 132.391C149.794 132.924 149.033 133.191 148.082 133.191C147.118 133.191 146.35 132.924 145.777 132.391C145.204 131.857 144.918 131.18 144.918 130.359ZM154.664 146.648V146.238C154.664 144.689 154.885 143.263 155.328 141.961C155.771 140.646 156.415 139.507 157.262 138.543C158.108 137.579 159.15 136.831 160.387 136.297C161.624 135.75 163.043 135.477 164.645 135.477C166.246 135.477 167.672 135.75 168.922 136.297C170.172 136.831 171.22 137.579 172.066 138.543C172.926 139.507 173.577 140.646 174.02 141.961C174.462 143.263 174.684 144.689 174.684 146.238V146.648C174.684 148.185 174.462 149.611 174.02 150.926C173.577 152.228 172.926 153.367 172.066 154.344C171.22 155.307 170.178 156.056 168.941 156.59C167.704 157.124 166.285 157.391 164.684 157.391C163.082 157.391 161.656 157.124 160.406 156.59C159.169 156.056 158.121 155.307 157.262 154.344C156.415 153.367 155.771 152.228 155.328 150.926C154.885 149.611 154.664 148.185 154.664 146.648ZM160.289 146.238V146.648C160.289 147.534 160.367 148.361 160.523 149.129C160.68 149.897 160.927 150.574 161.266 151.16C161.617 151.733 162.073 152.182 162.633 152.508C163.193 152.833 163.876 152.996 164.684 152.996C165.465 152.996 166.135 152.833 166.695 152.508C167.255 152.182 167.704 151.733 168.043 151.16C168.382 150.574 168.629 149.897 168.785 149.129C168.954 148.361 169.039 147.534 169.039 146.648V146.238C169.039 145.379 168.954 144.572 168.785 143.816C168.629 143.048 168.375 142.371 168.023 141.785C167.685 141.186 167.236 140.717 166.676 140.379C166.116 140.04 165.439 139.871 164.645 139.871C163.85 139.871 163.173 140.04 162.613 140.379C162.066 140.717 161.617 141.186 161.266 141.785C160.927 142.371 160.68 143.048 160.523 143.816C160.367 144.572 160.289 145.379 160.289 146.238ZM183.648 140.379V157H178.023V135.867H183.297L183.648 140.379ZM182.828 145.691H181.305C181.305 144.129 181.507 142.723 181.91 141.473C182.314 140.21 182.88 139.135 183.609 138.25C184.339 137.352 185.204 136.668 186.207 136.199C187.223 135.717 188.355 135.477 189.605 135.477C190.595 135.477 191.5 135.62 192.32 135.906C193.141 136.193 193.844 136.648 194.43 137.273C195.029 137.898 195.484 138.725 195.797 139.754C196.122 140.783 196.285 142.039 196.285 143.523V157H190.621V143.504C190.621 142.566 190.491 141.837 190.23 141.316C189.97 140.796 189.586 140.431 189.078 140.223C188.583 140.001 187.971 139.891 187.242 139.891C186.487 139.891 185.829 140.04 185.27 140.34C184.723 140.639 184.267 141.056 183.902 141.59C183.551 142.111 183.284 142.723 183.102 143.426C182.919 144.129 182.828 144.884 182.828 145.691ZM211.988 151.16C211.988 150.757 211.871 150.392 211.637 150.066C211.402 149.741 210.966 149.441 210.328 149.168C209.703 148.882 208.798 148.621 207.613 148.387C206.546 148.152 205.549 147.859 204.625 147.508C203.714 147.143 202.919 146.707 202.242 146.199C201.578 145.691 201.057 145.092 200.68 144.402C200.302 143.699 200.113 142.898 200.113 142C200.113 141.115 200.302 140.281 200.68 139.5C201.07 138.719 201.624 138.029 202.34 137.43C203.069 136.818 203.954 136.342 204.996 136.004C206.051 135.652 207.236 135.477 208.551 135.477C210.387 135.477 211.962 135.77 213.277 136.355C214.605 136.941 215.621 137.749 216.324 138.777C217.04 139.793 217.398 140.952 217.398 142.254H211.773C211.773 141.707 211.656 141.219 211.422 140.789C211.201 140.346 210.849 140.001 210.367 139.754C209.898 139.493 209.286 139.363 208.531 139.363C207.906 139.363 207.366 139.474 206.91 139.695C206.454 139.904 206.103 140.19 205.855 140.555C205.621 140.906 205.504 141.297 205.504 141.727C205.504 142.052 205.569 142.345 205.699 142.605C205.842 142.853 206.07 143.081 206.383 143.289C206.695 143.497 207.099 143.693 207.594 143.875C208.102 144.044 208.727 144.201 209.469 144.344C210.992 144.656 212.353 145.066 213.551 145.574C214.749 146.069 215.699 146.746 216.402 147.605C217.105 148.452 217.457 149.565 217.457 150.945C217.457 151.883 217.249 152.742 216.832 153.523C216.415 154.305 215.816 154.988 215.035 155.574C214.254 156.147 213.316 156.596 212.223 156.922C211.142 157.234 209.924 157.391 208.57 157.391C206.604 157.391 204.938 157.039 203.57 156.336C202.216 155.633 201.188 154.741 200.484 153.66C199.794 152.566 199.449 151.447 199.449 150.301H204.781C204.807 151.069 205.003 151.688 205.367 152.156C205.745 152.625 206.22 152.964 206.793 153.172C207.379 153.38 208.01 153.484 208.688 153.484C209.417 153.484 210.022 153.387 210.504 153.191C210.986 152.983 211.35 152.71 211.598 152.371C211.858 152.02 211.988 151.616 211.988 151.16Z" fill="black"/>
<path d="M27.75 99.0937C27.75 98.2812 27.625 97.5521 27.375 96.9062C27.1458 96.2396 26.7083 95.6354 26.0625 95.0937C25.4167 94.5312 24.5104 93.9792 23.3438 93.4375C22.1771 92.8958 20.6667 92.3333 18.8125 91.75C16.75 91.0833 14.7917 90.3333 12.9375 89.5C11.1042 88.6667 9.47917 87.6979 8.0625 86.5937C6.66667 85.4687 5.5625 84.1667 4.75 82.6875C3.95833 81.2083 3.5625 79.4896 3.5625 77.5312C3.5625 75.6354 3.97917 73.9167 4.8125 72.375C5.64583 70.8125 6.8125 69.4792 8.3125 68.375C9.8125 67.25 11.5833 66.3854 13.625 65.7812C15.6875 65.1771 17.9479 64.875 20.4062 64.875C23.7604 64.875 26.6875 65.4792 29.1875 66.6875C31.6875 67.8958 33.625 69.5521 35 71.6562C36.3958 73.7604 37.0938 76.1667 37.0938 78.875H27.7812C27.7812 77.5417 27.5 76.375 26.9375 75.375C26.3958 74.3542 25.5625 73.5521 24.4375 72.9687C23.3333 72.3854 21.9375 72.0937 20.25 72.0937C18.625 72.0937 17.2708 72.3437 16.1875 72.8437C15.1042 73.3229 14.2917 73.9792 13.75 74.8125C13.2083 75.625 12.9375 76.5417 12.9375 77.5625C12.9375 78.3333 13.125 79.0312 13.5 79.6562C13.8958 80.2812 14.4792 80.8646 15.25 81.4062C16.0208 81.9479 16.9688 82.4583 18.0938 82.9375C19.2188 83.4167 20.5208 83.8854 22 84.3437C24.4792 85.0937 26.6562 85.9375 28.5312 86.875C30.4271 87.8125 32.0104 88.8646 33.2812 90.0312C34.5521 91.1979 35.5104 92.5208 36.1562 94C36.8021 95.4792 37.125 97.1562 37.125 99.0312C37.125 101.01 36.7396 102.781 35.9688 104.344C35.1979 105.906 34.0833 107.229 32.625 108.312C31.1667 109.396 29.4271 110.219 27.4062 110.781C25.3854 111.344 23.125 111.625 20.625 111.625C18.375 111.625 16.1562 111.333 13.9688 110.75C11.7812 110.146 9.79167 109.24 8 108.031C6.22917 106.823 4.8125 105.281 3.75 103.406C2.6875 101.531 2.15625 99.3125 2.15625 96.75H11.5625C11.5625 98.1667 11.7812 99.3646 12.2188 100.344C12.6562 101.323 13.2708 102.115 14.0625 102.719C14.875 103.323 15.8333 103.76 16.9375 104.031C18.0625 104.302 19.2917 104.437 20.625 104.437C22.25 104.437 23.5833 104.208 24.625 103.75C25.6875 103.292 26.4688 102.656 26.9688 101.844C27.4896 101.031 27.75 100.115 27.75 99.0937ZM52.9688 107.187L61.9375 77.1875H71.5938L58 116.094C57.7083 116.948 57.3125 117.865 56.8125 118.844C56.3333 119.823 55.6771 120.75 54.8438 121.625C54.0312 122.521 53 123.25 51.75 123.812C50.5208 124.375 49.0104 124.656 47.2188 124.656C46.3646 124.656 45.6667 124.604 45.125 124.5C44.5833 124.396 43.9375 124.25 43.1875 124.062V117.469C43.4167 117.469 43.6562 117.469 43.9062 117.469C44.1562 117.49 44.3958 117.5 44.625 117.5C45.8125 117.5 46.7812 117.365 47.5312 117.094C48.2812 116.823 48.8854 116.406 49.3438 115.844C49.8021 115.302 50.1667 114.594 50.4375 113.719L52.9688 107.187ZM49.2188 77.1875L56.5625 101.687L57.8438 111.219L51.7188 111.875L39.5625 77.1875H49.2188ZM93.4688 101.656C93.4688 101.01 93.2812 100.427 92.9062 99.9062C92.5312 99.3854 91.8333 98.9062 90.8125 98.4687C89.8125 98.0104 88.3646 97.5937 86.4688 97.2187C84.7604 96.8437 83.1667 96.375 81.6875 95.8125C80.2292 95.2292 78.9583 94.5312 77.875 93.7187C76.8125 92.9062 75.9792 91.9479 75.375 90.8437C74.7708 89.7187 74.4688 88.4375 74.4688 87C74.4688 85.5833 74.7708 84.25 75.375 83C76 81.75 76.8854 80.6458 78.0312 79.6875C79.1979 78.7083 80.6146 77.9479 82.2812 77.4062C83.9688 76.8437 85.8646 76.5625 87.9688 76.5625C90.9062 76.5625 93.4271 77.0312 95.5312 77.9687C97.6562 78.9062 99.2812 80.1979 100.406 81.8437C101.552 83.4687 102.125 85.3229 102.125 87.4062H93.125C93.125 86.5312 92.9375 85.75 92.5625 85.0625C92.2083 84.3542 91.6458 83.8021 90.875 83.4062C90.125 82.9896 89.1458 82.7812 87.9375 82.7812C86.9375 82.7812 86.0729 82.9583 85.3438 83.3125C84.6146 83.6458 84.0521 84.1042 83.6562 84.6875C83.2812 85.25 83.0938 85.875 83.0938 86.5625C83.0938 87.0833 83.1979 87.5521 83.4062 87.9687C83.6354 88.3646 84 88.7292 84.5 89.0625C85 89.3958 85.6458 89.7083 86.4375 90C87.25 90.2708 88.25 90.5208 89.4375 90.75C91.875 91.25 94.0521 91.9062 95.9688 92.7187C97.8854 93.5104 99.4062 94.5937 100.531 95.9687C101.656 97.3229 102.219 99.1042 102.219 101.312C102.219 102.812 101.885 104.187 101.219 105.437C100.552 106.687 99.5938 107.781 98.3438 108.719C97.0938 109.635 95.5938 110.354 93.8438 110.875C92.1146 111.375 90.1667 111.625 88 111.625C84.8542 111.625 82.1875 111.062 80 109.937C77.8333 108.812 76.1875 107.385 75.0625 105.656C73.9583 103.906 73.4062 102.115 73.4062 100.281H81.9375C81.9792 101.51 82.2917 102.5 82.875 103.25C83.4792 104 84.2396 104.542 85.1562 104.875C86.0938 105.208 87.1042 105.375 88.1875 105.375C89.3542 105.375 90.3229 105.219 91.0938 104.906C91.8646 104.573 92.4479 104.135 92.8438 103.594C93.2604 103.031 93.4688 102.385 93.4688 101.656Z" fill="black"/>
<path d="M137.673 14.5388C137.187 14.3317 136.657 14.2456 136.13 14.288C135.603 14.3303 135.094 14.4999 134.647 14.7821C134.2 15.0643 133.828 15.4508 133.563 15.9083C133.298 16.3658 133.148 16.8808 133.126 17.409L132.188 39.7963L126.134 43.6955L120.093 39.7763L119.234 17.386C119.214 16.8577 119.066 16.3422 118.803 15.8838C118.539 15.4255 118.169 15.0378 117.722 14.7541C117.276 14.4704 116.768 14.2992 116.241 14.255C115.714 14.2109 115.185 14.2952 114.698 14.5007C110.259 16.374 106.348 19.3087 103.308 23.0471C100.268 26.7854 98.1932 31.213 97.265 35.9407C96.3368 40.6685 96.5838 45.5517 97.9845 50.1613C99.3851 54.7709 101.896 58.9659 105.298 62.3776C108.166 65.2629 111.599 67.525 115.381 69.0223L112.969 101.456C112.96 101.534 112.96 101.615 112.957 101.693C112.951 105.161 114.323 108.49 116.771 110.946C117.983 112.162 119.423 113.128 121.008 113.788C122.593 114.447 124.293 114.789 126.011 114.791C127.728 114.794 129.429 114.459 131.017 113.804C132.604 113.15 134.048 112.189 135.264 110.977C137.721 108.528 139.104 105.204 139.111 101.736C139.111 101.661 139.108 101.577 139.102 101.502L136.796 69.0578C141.358 67.288 145.406 64.4086 148.575 60.6802C151.743 56.9517 153.932 52.492 154.943 47.7048C155.954 42.9175 155.755 37.9539 154.364 33.2633C152.973 28.5727 150.434 24.3031 146.977 20.8412C144.312 18.1586 141.153 16.0182 137.673 14.5388ZM142.289 57.8161C139.544 60.5437 136.154 62.5329 132.435 63.5985C131.714 63.8049 131.086 64.2528 130.656 64.867C130.227 65.4812 130.021 66.2244 130.074 66.9721L132.566 101.832C132.519 103.537 131.809 105.155 130.586 106.343C129.363 107.531 127.724 108.195 126.019 108.192C124.314 108.189 122.678 107.52 121.459 106.328C120.241 105.136 119.536 103.515 119.495 101.811L122.099 66.9763C122.156 66.2279 121.952 65.483 121.524 64.8667C121.096 64.2504 120.469 63.8003 119.748 63.5919C115.612 62.3936 111.898 60.0523 109.033 56.8371C106.168 53.622 104.269 49.6636 103.554 45.417C102.838 41.1705 103.336 36.8081 104.989 32.8314C106.643 28.8548 109.385 25.4253 112.9 22.9373L113.621 41.7216C113.641 42.2445 113.787 42.7549 114.045 43.2099C114.304 43.6648 114.668 44.051 115.107 44.336L124.339 50.3234C124.867 50.6658 125.483 50.8485 126.112 50.8496C126.742 50.8506 127.358 50.6699 127.887 50.3292L137.146 44.3667C137.586 44.0832 137.952 43.6982 138.212 43.2441C138.472 42.7901 138.62 42.2801 138.642 41.7573L139.429 22.9755C142.135 24.9106 144.387 27.4121 146.029 30.3059C147.67 33.1997 148.661 36.4163 148.933 39.7322C149.205 43.048 148.752 46.3834 147.604 49.5064C146.457 52.6294 144.643 55.465 142.289 57.8161Z" fill="black"/>
</svg>
